<svg version="1.2" xmlns="http://www.w3.org/2000/svg" viewBox="0 0 257 122" width="257" height="122">
	<defs>
		<linearGradient id="g1" x2="1" gradientUnits="userSpaceOnUse" gradientTransform="matrix(3.354,3.77,-5.126,4.56,1.666,111.157)">
			<stop offset="0" stop-color="#ffffff" stop-opacity=".84"/>
			<stop offset="1" stop-color="#ffffff" stop-opacity=".94"/>
		</linearGradient>
	</defs>
	<style>
		.s0 { fill: #619936 } 
		.s1 { fill: #ffffff } 
		.s2 { opacity: .92;fill: #ffffff } 
		.s3 { opacity: .91;fill: #ffffff } 
		.s4 { opacity: .93;fill: #ffffff } 
		.s5 { opacity: .9;fill: #ffffff } 
		.s6 { opacity: .88;fill: #ffffff } 
		.s7 { opacity: .89;fill: #ffffff } 
		.s8 { opacity: .98;fill: #55a311 } 
		.s9 { opacity: .96;fill: #55a311 } 
		.s10 { opacity: .83;fill: #ffffff } 
		.s11 { opacity: .85;fill: #ffffff } 
		.s12 { opacity: .87;fill: #ffffff } 
		.s13 { opacity: .95;fill: #ffffff } 
		.s14 { opacity: .96;fill: #ffffff } 
		.s15 { opacity: .86;fill: #ffffff } 
		.s16 { opacity: .63;fill: #ffffff } 
		.s17 { opacity: .76;fill: #ffffff } 
		.s18 { opacity: .71;fill: #ffffff } 
		.s19 { opacity: .64;fill: #ffffff } 
		.s20 { opacity: .11;fill: #619936 } 
		.s21 { opacity: .75;fill: #619936 } 
		.s22 { opacity: .74;fill: #ffffff } 
		.s23 { opacity: .48;fill: #619936 } 
		.s24 { fill: url(#g1) } 
		.s25 { opacity: .8;fill: #ffffff } 
	</style>
	<path class="s0" d="m94.35 18.93c1.76 1.17-0.1 2.07 0.7 4.16q-2.1 14.23-3.47 28.56c-0.42 4.88-0.96 9.69-1.05 14.6-0.03 1.67-0.41 3.36-0.79 4.98 2.51-0.01 5.71 0.06 8.16-0.06q0.08 6.51 0.07 13.01c2.23-2.33 11.08-11.73 13.01-12.91 5.54-0.04 11.35 0.07 16.85-0.03-3.12 3.15-5.77 5.58-9.23 8.38-1.66 1.34-3.5 3.52-5.28 4.73 2.83 3.58 5.42 7.34 8.11 11.02 2.53 3.47 5.02 6.73 7.27 10.4-4.58-0.45-11.02 0.17-15.99-0.13-1.74-3.15-6.5-11.17-8.37-13.72-2.03 1.86-4.59 4.2-6.45 6.24l0.08 7.67c-4.07-0.16-28.71 0.16-29.74-0.54-1-1.36-1.62-3.86-2.15-5.54-2.4 0.1-12.22-0.13-13.41 0.55-0.92 1.35-1.4 3.76-2.02 5.42-3.06 0-10.77 0.15-13.43-0.25l9.73-22.02c0.73-1.64 4.8-11.65 5.83-11.89 3.06-0.69 8.64-0.33 11.96-0.28-1.64-6.36-3.03-12.6-5.23-18.81-0.34-0.97-1.29-4.18-1.66-4.9 0.1-1.17 0.17-1.32 0.73-2.35 2.96 5.81 6.33 15.04 7.92 21.4 2.04 8.13 3.63 13.11 7.13 20.85-0.8-10-0.2-22.48-0.21-32.71-0.01-5.09-0.3-15.1 0.08-19.9 1.05 3.85 0.82 8.69 1.12 12.72l2.9 36.83c0.64 7.33-0.28 11.99 3.01 19.05-0.69-9.15-0.71-31.42 2-39.66 1.2 8.68 1.09 14.71 1.48 23.38 0.06 0.86 0.22 2.34 0.21 3.16l0.04 1.9c-0.01 0.82-0.11 4.63 0.32 5.14 0.2-1.32 0.25-1.69 0.15-3l0.05-2.97q0.12-1.81 0.19-3.63c0.52-4.48 0.15-9.34 0.55-13.65 1.62-17.2 3.47-38.81 8.83-55.2zm-39.11 73.32q2.43-0.01 4.85 0.02c1.49 0.04 2.14 0.08 3.63 0.33-1.04-1.97-3.81-11.15-4.38-11.67-1.27 3.54-2.69 7.89-4.1 11.32z"/>
	<path class="s0" d="m131.27 71.25l12.61-0.05c0.13 4.22 0.07 8.73 0.07 12.96 2.55-2.58 10.67-11.3 13.02-12.9 5.45-0.13 11.36-0.03 16.84-0.02-3.09 3.21-5.44 5.26-8.88 8.08-1.94 1.6-3.44 3.42-5.61 5.03 3.31 4.12 6.65 9.1 9.88 13.43 1.91 2.4 3.76 5.25 5.37 7.86-4.8 0.11-11.12 0.22-15.85 0.01-0.29-0.62-0.67-1.18-1.04-1.76-2.5-3.96-4.65-8.14-7.34-11.98-1.92 1.74-4.79 4.38-6.46 6.33l0.09 7.59c-4.14-0.18-8.55-0.1-12.72-0.09q0.1-17.25 0.02-34.49z"/>
	<path class="s0" d="m207 84.12c1.95-0.06 3.54 0.17 5.63-0.03 0.07 1.84 0.53 6.98-0.52 8.19-1.96 0.79-23.91 0.41-27.05 0.41l-6.79 0.02-0.02-8.51c9.49-0.16 19.22-0.03 28.75-0.08z"/>
	<path class="s0" d="m206.24 97.13c2.17-0.06 4.14 0.11 6.39-0.04 0.07 1.94 0.49 6.66-0.31 8.2-1.84 0.73-23.09 0.39-27.01 0.4l-7.02 0.02-0.03-8.5c9.24-0.15 18.71-0.05 27.98-0.08z"/>
	<path class="s0" d="m178.26 71.21c10.69 0.11 23.75 0.29 34.35-0.05 0.04 2.9 0.13 5.85 0.21 8.76-3.5-0.35-9.32-0.21-12.98-0.21l-21.56 0.03z"/>
	<path class="s1" d="m195.01 54.93c1.61 0.28 15.79 11.57 18.72 13.47-4.72-0.37-12.38-0.02-17.42 0-6.3 0.02-13.09-0.25-19.29-0.11 5.56-4.08 12.41-9.64 17.99-13.36z"/>
	<path class="s2" d="m241.1 111.48c1.79 0.07 5.06-0.31 5.55 1.72-0.26 0.53-0.51 0.84-0.38 1.4 0.92 1.33 0.87 1.21 0.43 2.73-2.34 0.76-3.27 0.65-5.73 0.66-0.15-2.1-0.25-4.45 0.13-6.51zm4.68 5.58c0.2-1.11 0.32-0.83-0.12-1.7-0.87-0.54-2.63-0.37-3.77-0.39-0.04 1.23-0.22 1.03 0.34 1.92 0.88 0.49 2.45 0.19 3.55 0.17zm0.12-2.87c-0.41-2.2-2.08-1.63-3.9-2.09-0.07 1.15-0.24 1.03 0.25 1.89 0.88 0.5 2.57 0.26 3.65 0.2z"/>
	<path class="s3" d="m102.49 111.54c2.02-0.04 5.99-0.61 6.45 1.88-0.23 0.74-1.18 1.41-1.8 1.94-0.06 1.17 1.3 0.66 2.02 2.25l-0.29 0.24-0.83-0.27c-1.19-1.15-2.51-3.28-4.42-2.59-0.88 1 0.11 2.22-0.93 3.04-0.7-0.91-0.57-5.34-0.2-6.49zm5.14 2.63c0.25-0.98 0.31-0.63-0.12-1.36-1.15-0.69-2.84-0.54-4.23-0.55-0.16 1.06-0.27 0.77 0.16 1.61 1.11 0.69 2.89 0.46 4.19 0.3z"/>
	<path class="s4" d="m214.97 111.45c1.64 0.08 4.24-0.04 5.69 0.56 0.65 0.66 0.48 0.35 0.71 1.18-0.15 0.79-0.93 1.47-1.51 2.08-0.01 1.01 1.46 1.11 1.67 2.35l-0.4 0.19-0.85-0.43c-1.56-1.92-1.88-2.03-4.16-2.83-0.1 0.91-0.18 2.38-0.75 3.08l-0.3-0.26c-0.42-2.13-0.35-3.77-0.1-5.92zm4.81 2.95c0.4-0.93 0.47-0.7 0.24-1.51-0.89-0.77-2.54-0.45-3.96-0.97-0.24 0.78-0.39 1.07-0.11 1.86 1.04 0.77 2.46 0.59 3.83 0.62z"/>
	<path class="s5" d="m40.93 111.31c2.05 0.45 3.06 3.91 3.56 5.75 0.83-1.46 2-4.6 3.44-5.36l0.43 0.18c0.56 1.35 0.4 4.29 0.08 5.71l-0.23 0.07c-0.52-0.76-0.38-1.42-0.33-2.35 0.06-0.91 0.19-0.83-0.18-1.55-1.08 0.55-1.76 3.4-3.2 4.05-1-0.55-1.05-2.79-2.21-3.91-0.3 0.34-0.79 4.32-1.07 5.5-0.6-2.95-0.47-5.08-0.29-8.09z"/>
	<path class="s2" d="m144.09 111.31c1.91 0.54 2.92 3.77 3.64 5.56 0.89-1.56 1.89-4.29 3.25-5.37l0.42 0.06c0.68 1.51 0.53 4.49 0.09 6.09l-0.21 0.04c-0.45-1.21-0.34-1.98-0.29-3.25l-0.1-0.63-0.36-0.09c-0.75 1.02-1.93 3.94-3.02 4.03-0.89-0.98-1.17-2.75-2.13-4.07-0.33 0.36-0.78 4.74-0.92 5.69l-0.03-0.11c-0.78-3.26-0.61-4.51-0.34-7.95z"/>
	<path class="s4" d="m158.5 111.36c1.47 0.89 3.61 4.65 3.73 6.31-1.25-0.31-1.39-1.9-2.94-1.84-1.83-0.48-2.2 0.54-3.69 1.68l-0.11-0.26c0.78-2.33 1.54-3.9 3.01-5.89z"/>
	<path class="s3" d="m20.93 111.33c1.46 0.58 4 3.85 5.13 5.17 0.12-1.36-0.04-3.48 0.67-4.6 0.7 1.01 0.42 4.77 0.37 6.23-1.47-0.57-4.21-3.88-5.37-5.17 0.03 1.22 0.22 3.44-0.44 4.42l-0.28-0.3c-0.51-2.23-0.31-3.52-0.08-5.75z"/>
	<path class="s6" d="m11.02 111.53c2.52 0.19 4.07-0.03 6.87 0.38-2.56 0.52-3.28 0.26-5.75 0.53-0.5 0.58-0.43 0.33-0.49 1 0.72 0.86 4.51 0.89 6.25 1.22-1.91 0.3-3.02 0.33-4.96 0.37-0.97-0.11-1.04 0.19-1.39 0.93 0.64 1.64 3.56 0.89 4.82 1.72-1.98 0.27-3.52 0.28-5.53 0.31-0.09-1.81-0.27-4.78 0.18-6.46z"/>
	<path class="s7" d="m226.69 111.56c1.19-0.1 4.07-0.2 4.4 1.2-0.73 0.61-4.03-1.77-4.8 0.4 0.91 0.93 3.68 1.13 5.11 2.35 0.58 1.47-0.95 2.03-2.14 2.51-1.19-0.04-3.65-0.27-4.11-1.6 1.44-0.07 4.39 1.34 5.4 0.12-0.77-2.41-5.04-0.88-5.29-3.38 0.37-0.83 0.72-1.03 1.43-1.6z"/>
	<path class="s2" d="m74.57 111.54c1.1-0.05 3.78 0 3.97 1.33-1.47 0.42-3.13-1.65-4.62 0 0.26 1.66 4.01 1.12 5.18 3.15l-0.21 0.63c-0.81 0.85-1.27 0.97-2.39 1.41-1.88-0.25-2.5-0.15-3.88-1.47 0.77-0.51 4.18 1.16 5.36 0-0.48-2.07-5.53-1.25-5.27-3.68 0.66-0.83 0.9-0.9 1.86-1.37z"/>
	<path class="s3" d="m114.5 111.52c2-0.14 2.3 0.1 4.12 0.9l0.05 0.21c-0.65 0.08-3.31-0.18-4.12-0.25-0.56 0.27-0.39 0.06-0.59 0.59 0.75 1.15 3.48 1.37 4.94 2.59 0.62 1.56-1.07 2.01-2.29 2.44-1.39-0.06-3.21-0.21-3.95-1.51 0.62-0.97 4.41 2.09 5.39-0.05-0.61-1.46-3.16-1.3-4.94-2.48-0.79-1.35 0.26-1.8 1.39-2.44z"/>
	<path class="s8" d="m94.35 18.93c0.52-2.52 2.96-11.73 4.47-13.38-1.26 4.91-2.5 9.83-3.26 14.84q-0.2 1.36-0.51 2.7c-0.8-2.09 1.06-2.99-0.7-4.16z"/>
	<path class="s3" d="m128.77 117.74c-0.17-0.21-0.63-0.85-0.59-1.07 0.25-1.26 0.73-3.81 1.48-4.73l0.33 0.03c0.2 0.75 0.29 1.31 0.76 1.92 0.58-0.05 0.36 0.03 0.86-0.49 0.06-0.74 0.04-1.02-0.01-1.74l0.31-0.04c0.92 0.57 0.79 0.3 1.02 1.14-0.45 1.1-0.18 0.74-1.27 1.37l-0.03 0.47c0.9 0.71 2.75 1.76 2.77 3.03-1.91-0.12-3.64-3.4-5.09-2.48-0.18 0.87-0.21 1.17-0.05 2.06z"/>
	<path class="s4" d="m207.33 111.37c1.35 0.61 3.71 4.74 3.55 6.17l-0.41-0.07c-2.47-2.34-1.38-1.94-2.67-4.71-0.26 0.06-0.63 0.26-0.7 0.52-0.75 2.46-1.85 3.89-3.58 5.74 0.6-1.9 2.57-6.18 3.81-7.65z"/>
	<path class="s2" d="m197.28 111.4c1.19 0.37 3.81 4.9 3.68 6.14-2.3-0.54-2.3-3.02-3.05-4.58l-0.1-0.21-0.26 0.07c-1.07 0.78-1.48 4.55-3.24 5.07l-0.13-0.42c0.36-1.52 2.11-4.85 3.1-6.07z"/>
	<path class="s3" d="m176.04 117.99c-0.09-1.65-0.72-5.67 0.81-6.53l0.24 0.64c-0.07 0.42-0.08 0.89-0.1 1.31 0.88 1.17 3.2 0.63 5.57 1.35-1.45 0.15-5.11-0.13-5.8 1.4 0.91 1.22 4.41 1.22 5.83 1.31-2.57 0.43-3.91 0.46-6.55 0.52z"/>
	<path class="s9" d="m52.85 34.41c1.97 2.87 4.22 7.61 5.73 10.81-0.56 1.03-0.63 1.18-0.73 2.35-1.3-4.1-4.07-9.16-5-13.16z"/>
	<path class="s10" d="m62.96 117.99c-0.11-1.39-0.51-5.28 0.3-6.28l0.45 0.02 0.1 0.45c-0.06 0.71-0.18 1.23 0.25 1.79 1.19 0.81 2.55-0.59 3.95 0.6-0.71 0.61-3.12 0.02-4.33 1.18l0.11 0.68c1 1.09 4.01 0.86 5.82 1.03-2.65 0.41-3.97 0.45-6.65 0.53z"/>
	<path class="s7" d="m92.17 111.74c2.6-0.27 4.17-0.11 6.74 0.27-1.54 0.19-5.29-0.12-5.87 1.3l0.3 0.54c0.45 0.26 4.14 0.52 5.46 0.8-1.92 0.33-4.17 0.01-5.43 0.73-0.42 0.85-0.3 0.57-0.08 1.66l0.2 0.87-0.72-0.03c-0.95-0.99-0.61-4.53-0.6-6.14z"/>
	<path class="s11" d="m53.24 111.72l0.68 0.27c-0.16 0.7-0.17 0.81-0.09 1.53 1.08 1.16 2.98 0.41 5.35 1.19l0.12 0.04c-1.6 0.17-4.73-0.16-5.64 1.37 0.93 1.31 4.38 1.25 5.9 1.34-2.49 0.41-4.13 0.45-6.63 0.53-0.1-1.58-0.49-4.96 0.31-6.27z"/>
	<path class="s12" d="m186.26 111.41c0.94 0.86 0.7 4.56 0.7 5.9 1.35-0.05 2.19-0.09 3.55 0.08l0.06 0.32c-0.82 0.21-3.54 0.28-4.53 0.32-0.11-1.88-0.34-4.83 0.22-6.62z"/>
	<path class="s3" d="m31.23 111.58c0.43-0.01 4.78 0.29 4.83 0.33-1.9 0.94-1.65 2.15-1.57 3.9 0.03 0.57-0.02 1.26-0.37 1.69-0.62-0.89-0.66-3.52-0.65-4.62-0.48-0.7-1.26-0.77-2.24-1.3z"/>
	<path class="s13" d="m82.49 111.59c1.17 0.02 4.68-0.01 5.53 0.37-0.78 0.5-1 0.26-1.94 0.32-0.32 0.7-0.13 2.01-0.08 2.83-0.01 0.9 0.09 1.9-0.44 2.59l-0.29-0.05c-0.72-1.78 0.52-4.44-0.8-5.64-1.02 0.13-1.32 0.31-1.98-0.42z"/>
	<path class="s14" d="m167.22 115c-0.12 0.88-0.21 2.34-0.98 2.88-0.56-0.91-0.6-5.72 0.23-6.24 0.42 0.87 0.51 1.94 0.64 2.9z"/>
	<path class="s15" d="m167.11 114.54c1.28-0.55 3.31-2.86 4.73-2.79-0.69 0.67-2.78 2.54-3.17 3.12l-1.46 0.13z"/>
	<path class="s3" d="m168.67 114.87c1.55 0.32 3.09 1.63 3.74 3.03-1.59-0.31-3-1.62-3.74-3.03z"/>
	<path class="s16" d="m53.24 111.72c1.42-0.35 4.75-0.01 6.26 0.13-1.94 0.44-3.67 0.88-5.58 0.14z"/>
	<path class="s17" d="m93.29 117.04c2.07 0.03 3.89 0.23 5.95 0.45-2.27 0.35-3.44 0.39-5.75 0.42z"/>
	<path class="s18" d="m176.85 111.46c1.94 0.11 3.81 0.2 5.71 0.56-1.8 0.23-3.78 0.67-5.47 0.08z"/>
	<path class="s19" d="m63.71 111.73c1.87-0.21 3.93-0.02 5.83 0.11-2.58 0.65-3.16 0.62-5.73 0.34z"/>
	<path class="s20" d="m84.01 87.18l0.96 0.6q-0.07 1.82-0.19 3.63l-0.56-1.07c0.01-0.82-0.15-2.3-0.21-3.16z"/>
	<path class="s21" d="m84.26 92.24l0.47 2.14c0.1 1.31 0.05 1.68-0.15 3-0.43-0.51-0.33-4.32-0.32-5.14z"/>
	<path class="s22" d="m129.26 117.21c0.84-0.04 1.67-0.17 2.38 0.23-0.76 0.69-1.92 0.43-2.87 0.3z"/>
	<path class="s23" d="m84.22 90.34l0.56 1.07-0.05 2.97-0.47-2.14z"/>
	<path class="s0" d="m0 71.25l16.98-0.04c6.9 0 18.97-1.26 18.81 9.32-0.05 3.81-2.34 4.66-5.16 6.58 2.9 1.55 5.98 3.22 6.91 6.63 1.56 5.66-2.83 10.04-8 11.27-4.29 1.03-8.92 0.68-13.29 0.67q-8.13-0.03-16.25 0.02zm12.68 26.97c4.13 0.06 7.22 0.57 10.81-1.5 0.89-0.96 1.94-3.04 0.5-3.95-3.09-1.97-7.79-0.78-11.29-1.15 0.03 2.22 0.08 4.38-0.02 6.6zm0.06-13.94c2.06 0 8.11 0.62 9.34-1.03 4.84-6.08-6.53-4.34-9.37-4.62q0.05 2.83 0.03 5.65z"/>
	<path class="s0" d="m217.25 71.22c6.17 0.2 12.45-0.11 18.69-0.01 6.69 0 16.66-0.94 18.52 7.67 1.41 6.54-3.53 10.06-9.08 11.52 6.04 2.64 8.33 8.29 11.62 13.86v1.46c-4.08-0.02-9.81 0.2-13.66-0.12-3.36-3.59-5.35-10.32-9.49-13.11-0.55-0.38-2.49-0.89-3.23-1.09 0.35 3.95 0.11 10.28 0.26 14.56-2.97-0.42-10.29-0.22-13.62-0.2zm13.48 14.02c2.82-0.01 7.03-0.05 9.6-1.41 1.87-1.86 2.12-3.9-0.74-4.76-2.9-0.86-6-0.11-8.94-0.45 0.1 2.31 0.11 4.31 0.08 6.62z"/>
	<path class="s24" d="m0 111.65c1.99-0.14 4.7-0.33 6.39 0.87 0.75 1.4-0.54 2.19-1.66 2.91l-0.75 0.15c-0.78-0.39-1.19-0.65-2.07-0.67-1.42 0.9-0.69 1.84-1.91 2.97zm5.64 2.4c-0.11-1.04 0.07-0.67-0.65-1.4-1.14-0.5-2.67-0.4-3.95-0.42-0.07 1.07-0.23 0.94 0.27 1.65 1.16 0.62 3.12 0.55 4.33 0.17z"/>
	<path class="s3" d="m257 113.22c-0.92 1.25-1.84 3.79-3.1 4.47l-0.58-0.18c-1.13-1.19-2.59-4.04-2.57-5.67l0.31 0.02c0.87 0.96 2 3.84 2.62 5.18 1.25-1.88 1.86-3.89 3.32-5.66z"/>
	<path class="s25" d="m3.98 115.58l0.75-0.15c1.13 1.04 1.43 0.91 1.99 2.32l-0.03 0.16-0.27-0.47-0.38 0.08c-0.98-0.67-1.27-1.04-2.06-1.94z"/>
</svg>
